<?xml version="1.0" encoding="utf-8"?>
<!-- Generator: Adobe Illustrator 21.0.0, SVG Export Plug-In . SVG Version: 6.00 Build 0)  -->
<svg version="1.1" xmlns="http://www.w3.org/2000/svg" xmlns:xlink="http://www.w3.org/1999/xlink" x="0px" y="0px"
	 viewBox="0 0 60.2 46.2" style="enable-background:new 0 0 60.2 46.2;" xml:space="preserve">
<style type="text/css">
	.st0{fill:#3B3C3D;}
	.st1{fill:#FCF5EB;}
	.st2{fill:#FFFFFF;}
	.st3{fill:#FFFFFF;stroke:#231F20;stroke-width:4;stroke-miterlimit:10;}
	.st4{fill:#FFFFFF;stroke:#231F20;stroke-width:8;stroke-miterlimit:10;}
	.st5{clip-path:url(#SVGID_2_);}
	.st6{fill:#E2AF3B;}
	.st7{fill:#DD3D27;}
	.st8{fill:#A24F9D;}
	.st9{fill:#30AEA4;}
	.st10{fill:#7FC8A0;}
	.st11{fill:none;stroke:#7FC8A0;stroke-width:4.0519;stroke-linecap:round;stroke-miterlimit:10;}
	.st12{fill:none;stroke:#7FC8A0;stroke-width:4.0519;stroke-linecap:round;stroke-miterlimit:10;stroke-dasharray:0.5019,12.045;}
	.st13{fill:none;stroke:#A24F9D;stroke-width:4.0519;stroke-linecap:round;stroke-miterlimit:10;}
	.st14{fill:none;stroke:#A24F9D;stroke-width:4.0519;stroke-linecap:round;stroke-miterlimit:10;stroke-dasharray:0.5004,12.0101;}
	.st15{fill:none;stroke:#E2AF3B;stroke-width:4.0519;stroke-linecap:round;stroke-miterlimit:10;}
	.st16{fill:none;stroke:#E2AF3B;stroke-width:4.0519;stroke-linecap:round;stroke-miterlimit:10;stroke-dasharray:0.4994,11.9864;}
	.st17{fill:#333232;}
	.st18{fill:none;stroke:#DD3D27;stroke-width:4.0519;stroke-linecap:round;stroke-miterlimit:10;}
	.st19{fill:none;stroke:#DD3D27;stroke-width:4.0519;stroke-linecap:round;stroke-miterlimit:10;stroke-dasharray:0.4978,11.9477;}
	.st20{fill:none;stroke:#DD3D27;stroke-width:4.0519;stroke-linecap:round;stroke-miterlimit:10;stroke-dasharray:0.5089,12.2138;}
	.st21{fill:none;stroke:#E2AF3B;stroke-width:5.0649;stroke-linecap:round;stroke-miterlimit:10;}
	.st22{fill:none;stroke:#E2AF3B;stroke-width:5.0649;stroke-linecap:round;stroke-miterlimit:10;stroke-dasharray:0.5099,12.2372;}
	.st23{fill:none;stroke:#E2AF3B;stroke-width:5.0649;stroke-linecap:round;stroke-miterlimit:10;stroke-dasharray:0.5106,12.2551;}
	.st24{fill:none;stroke:#FFFFFF;stroke-width:6.0779;stroke-linecap:round;stroke-miterlimit:10;}
	.st25{fill:none;stroke:#FFFFFF;stroke-width:6.0779;stroke-linecap:round;stroke-miterlimit:10;stroke-dasharray:0.5059,20.2357;}
	.st26{clip-path:url(#SVGID_4_);}
	.st27{fill:none;stroke:#E2AF3B;stroke-width:2;stroke-linecap:round;stroke-miterlimit:10;}
	.st28{fill:none;stroke:#E2AF3B;stroke-width:2;stroke-linecap:round;stroke-miterlimit:10;stroke-dasharray:0.247,5.929;}
	.st29{fill:none;stroke:#DD3D27;stroke-width:2;stroke-linecap:round;stroke-miterlimit:10;}
	.st30{fill:none;stroke:#DD3D27;stroke-width:2;stroke-linecap:round;stroke-miterlimit:10;stroke-dasharray:0.2502,6.0041;}
	.st31{fill:none;stroke:#A24F9D;stroke-width:2;stroke-linecap:round;stroke-miterlimit:10;}
	.st32{fill:none;stroke:#A24F9D;stroke-width:2;stroke-linecap:round;stroke-miterlimit:10;stroke-dasharray:0.2474,5.9379;}
	.st33{fill:none;stroke:#7FC8A0;stroke-width:2;stroke-linecap:round;stroke-miterlimit:10;}
	.st34{fill:none;stroke:#7FC8A0;stroke-width:2;stroke-linecap:round;stroke-miterlimit:10;stroke-dasharray:0.2517,6.0413;}
	.st35{fill:none;stroke:#7FC8A0;stroke-width:6.0779;stroke-linecap:round;stroke-miterlimit:10;stroke-dasharray:0.5065,20.2596;}
	.st36{fill:none;stroke:#7FC8A0;stroke-width:3;stroke-linecap:round;stroke-miterlimit:10;stroke-dasharray:0.5065,20.2596;}
	.st37{clip-path:url(#SVGID_8_);}
	.st38{clip-path:url(#SVGID_10_);}
	.st39{fill:none;stroke:#FCF5EB;stroke-width:3;stroke-linecap:round;stroke-miterlimit:10;stroke-dasharray:0.5065,20.2596;}
	.st40{fill:none;stroke:#E2AF3B;stroke-width:5;stroke-miterlimit:10;}
	.st41{fill:#9C563A;}
	.st42{fill:none;stroke:#8B4322;stroke-width:2;stroke-linecap:round;stroke-miterlimit:10;}
</style>
<g id="Layer_1">
	<path class="st1" d="M58.3,27.1L32.9,1.8c-1.6-1.6-4.1-1.6-5.7,0L15.6,13.5c-1.6,1.6-1.6,4.1,0,5.7l25.3,25.3
		c1.6,1.6,4.1,1.6,5.7,0l11.7-11.7C59.8,31.2,59.8,28.7,58.3,27.1z M29.1,7.4c1.5,0,2.7,1.2,2.7,2.7c0,1.5-1.2,2.7-2.7,2.7
		c-1.5,0-2.7-1.2-2.7-2.7C26.5,8.6,27.7,7.4,29.1,7.4z M26.5,20.6c0-1.5,1.2-2.7,2.7-2.7c1.5,0,2.7,1.2,2.7,2.7
		c0,1.5-1.2,2.7-2.7,2.7C27.7,23.2,26.5,22,26.5,20.6z M32.1,29.3c-0.4,0.4-1,0.4-1.4,0c-0.4-0.4-0.4-1,0-1.4l11-11
		c0.4-0.4,1-0.4,1.4,0c0.4,0.4,0.4,1,0,1.4L32.1,29.3z M44.7,33.5c-1.5,0-2.7-1.2-2.7-2.7c0-1.5,1.2-2.7,2.7-2.7
		c1.5,0,2.7,1.2,2.7,2.7C47.4,32.3,46.2,33.5,44.7,33.5z M19.3,44.4l8.7-8.7L13.5,21.2c-1.1-1.1-1.7-2.4-1.9-3.7L2,27.1
		c-1.6,1.6-1.6,4.1,0,5.7l11.7,11.7C15.2,46,17.8,46,19.3,44.4z M8.5,26.8c1-1,2.7-1,3.8,0s1,2.7,0,3.8s-2.7,1-3.8,0
		S7.5,27.9,8.5,26.8z M15.8,34.1c1-1,2.7-1,3.8,0c1,1,1,2.7,0,3.8c-1,1-2.7,1-3.8,0C14.8,36.9,14.8,35.2,15.8,34.1z"/>
</g>
<g id="Layer_2">
</g>
</svg>
