<svg id="Layer_1" data-name="Layer 1" xmlns="http://www.w3.org/2000/svg" viewBox="0 0 70 60"><title>action_gold</title><path d="M63.14,40.87,37.83,15.55a4,4,0,0,0-5.66,0L20.49,27.24a4,4,0,0,0,0,5.66L45.8,58.21a4,4,0,0,0,5.66,0L63.14,46.53A4,4,0,0,0,63.14,40.87ZM34,21.18a2.68,2.68,0,1,1-2.68,2.68A2.68,2.68,0,0,1,34,21.18ZM31.35,34.33A2.68,2.68,0,1,1,34,37,2.68,2.68,0,0,1,31.35,34.33ZM37,43.05a1,1,0,1,1-1.38-1.38l11-11A1,1,0,0,1,48,32.09Zm12.54,4.25a2.68,2.68,0,1,1,2.68-2.68A2.68,2.68,0,0,1,49.56,47.31ZM24.2,58.21l8.74-8.74L18.42,35a6.88,6.88,0,0,1-1.93-3.73L6.86,40.87a4,4,0,0,0,0,5.66L18.54,58.21A4,4,0,0,0,24.2,58.21ZM13.39,40.59a2.68,2.68,0,1,1,0,3.79A2.68,2.68,0,0,1,13.39,40.59Zm7.3,7.3a2.68,2.68,0,1,1,0,3.79A2.68,2.68,0,0,1,20.69,47.89Z" style="fill:#e2af3b"/></svg>