<svg id="Layer_1" data-name="Layer 1" xmlns="http://www.w3.org/2000/svg" viewBox="0 0 124 35.06"><title>back</title><path d="M121.78,24.33a.83.83,0,0,0,.07-.11h.94a1.19,1.19,0,0,1,.84,2l-3.34,3.37L123.66,33a1.19,1.19,0,0,1-.85,2h-1a.83.83,0,0,0-.07-.11l-5.31-5.31Z" style="fill:#e2af3b"/><path d="M15.17,24.63a1,1,0,0,1,1.24.9V27.7h88.78L107.92,25a2.59,2.59,0,0,1,1.83-.76h3.12l-4.8,4.8a.88.88,0,0,0,0,1.25l4.8,4.8h-3.08A2.59,2.59,0,0,1,108,34.3l-2.71-2.72H16.41v2.17a1,1,0,0,1-1.24.9L0,29.61Z" style="fill:#e2af3b"/><path d="M115.26,24.33a.88.88,0,0,0,.07-.11h4.06l-4.8,4.8a.88.88,0,0,0,0,1.25l4.8,4.8h-4.06a.88.88,0,0,0-.07-.11l-5.31-5.31Z" style="fill:#e2af3b"/><path d="M20.73,22.85h8.51a10.78,10.78,0,0,0,4.24-.77,6.3,6.3,0,0,0,2.78-2.16,5.51,5.51,0,0,0,1-3.25,5.72,5.72,0,0,0-1.06-3.5,5.74,5.74,0,0,0-3-2A5.27,5.27,0,0,0,35.74,9.2a5.21,5.21,0,0,0,.93-3.06,5.08,5.08,0,0,0-2.1-4.27A9.15,9.15,0,0,0,28.93.29H20.73a2.73,2.73,0,0,0-2,.7A2.73,2.73,0,0,0,18,3V20.13a2.46,2.46,0,0,0,2.72,2.72Zm3-18.11h4.19a4.27,4.27,0,0,1,2.43.54A2,2,0,0,1,31.13,7a1.82,1.82,0,0,1-.77,1.63,4.49,4.49,0,0,1-2.43.51H23.74Zm0,8.86h4.77a4.31,4.31,0,0,1,2.51.56A2.15,2.15,0,0,1,31.77,16,2.15,2.15,0,0,1,31,17.84a4.3,4.3,0,0,1-2.51.56H23.74Z" style="fill:#e2af3b"/><path d="M41.74,22.94a2.5,2.5,0,0,0,2.34-1.54l1.47-3.23H55.91l1.44,3.23a2.59,2.59,0,0,0,1,1.15,2.47,2.47,0,0,0,1.34.38,2.87,2.87,0,0,0,1.94-.74,2.29,2.29,0,0,0,.85-1.79,2.77,2.77,0,0,0-.29-1.18L53.7,1.89A3,3,0,0,0,52.45.56a3.73,3.73,0,0,0-3.6,0,3,3,0,0,0-1.23,1.33L39.17,19.23a2.77,2.77,0,0,0-.29,1.18,2.25,2.25,0,0,0,.88,1.79A3,3,0,0,0,41.74,22.94Zm9-16.32,3.2,7.14h-6.4Z" style="fill:#e2af3b"/><path d="M68.88,21.73A13.07,13.07,0,0,0,81.95,21a2.18,2.18,0,0,0,1-2,2.58,2.58,0,0,0-.56-1.68,1.7,1.7,0,0,0-1.36-.69,2.07,2.07,0,0,0-.77.13q-.32.13-1,.48-1.41.64-2.3.94a5.74,5.74,0,0,1-1.86.3,5.14,5.14,0,0,1-4.24-1.71,8.19,8.19,0,0,1-1.39-5.23,8.13,8.13,0,0,1,1.39-5.2,5.14,5.14,0,0,1,4.24-1.71,7.31,7.31,0,0,1,2,.29,9.08,9.08,0,0,1,2.11,1,5.15,5.15,0,0,0,.9.46,2.44,2.44,0,0,0,.86.14,1.7,1.7,0,0,0,1.36-.69A2.58,2.58,0,0,0,83,4.13,2.43,2.43,0,0,0,82.73,3a2.49,2.49,0,0,0-.78-.83,13.07,13.07,0,0,0-13.07-.74,9.69,9.69,0,0,0-3.94,4,12.85,12.85,0,0,0-1.39,6.11,12.92,12.92,0,0,0,1.39,6.14A9.69,9.69,0,0,0,68.88,21.73Z" style="fill:#e2af3b"/><path d="M89,23a3,3,0,0,0,2.18-.78,2.84,2.84,0,0,0,.8-2.13V12.58l9.12,9.34a3,3,0,0,0,2.18,1,2.58,2.58,0,0,0,1.89-.8,2.55,2.55,0,0,0,.8-1.86,2.5,2.5,0,0,0-.83-1.86l-7.1-7.3,6.56-6.43a2.68,2.68,0,0,0,.93-2,2.5,2.5,0,0,0-.8-1.84A2.54,2.54,0,0,0,101,1L92,10V3a2.8,2.8,0,0,0-.8-2.1A3,3,0,0,0,89,.13,2.88,2.88,0,0,0,86.9.91,2.83,2.83,0,0,0,86.11,3V20.13A2.71,2.71,0,0,0,89,23Z" style="fill:#e2af3b"/></svg>