<svg id="Layer_1" data-name="Layer 1" xmlns="http://www.w3.org/2000/svg" viewBox="0 0 70 60"><title>chance_gold</title><path d="M22.79,23.18,1.25,23.11,1.14,55.4A3.9,3.9,0,0,0,5,59.32l21.53.07.11-32.3A3.9,3.9,0,0,0,22.79,23.18ZM13.91,53.27,10.7,49l3.22-4.31L17.13,49Zm0-15.41L10.7,33.54l3.22-4.31,3.22,4.31Z" style="fill:#e2af3b"/><path d="M46.31,17.42,27.69,6.59,19.75,20.24h3a6.84,6.84,0,0,1,6.81,6.86l-.08,22.43,1.94,1.13L47.72,22.76A3.91,3.91,0,0,0,46.31,17.42Z" style="fill:#e2af3b"/><path d="M68.34,38.62,57.63,19.93l-7.32,4.19-.06.11L34.19,51.84,38.87,60l28-16.05A3.9,3.9,0,0,0,68.34,38.62Z" style="fill:#e2af3b"/></svg>