<svg id="Layer_1" data-name="Layer 1" xmlns="http://www.w3.org/2000/svg" viewBox="0 0 70 53.41"><title>chance</title><path d="M48.15,11.61,28.62.24a1.72,1.72,0,0,0-2.36.62L19.76,12l4.87,0a6.06,6.06,0,0,1,5.85,6.05l-.09,25.76A1.72,1.72,0,0,0,31.87,43L48.77,14A1.73,1.73,0,0,0,48.15,11.61Z" style="fill:#fcf5eb"/><path d="M69.78,34.13,58.55,14.52a1.72,1.72,0,0,0-2.35-.64l-3.59,2.06-17,29.24-.18.29a2.91,2.91,0,0,0-.09,3.06l2.3,4a1.73,1.73,0,0,0,2.35.64l29.16-16.7A1.73,1.73,0,0,0,69.78,34.13Z" style="fill:#fcf5eb"/><path d="M24.45,16.36l-22.6-.08A1.72,1.72,0,0,0,.12,18L0,51.6a1.72,1.72,0,0,0,1.65,1.73l22.67.08A1.72,1.72,0,0,0,26,51.69l.12-33.61A1.73,1.73,0,0,0,24.45,16.36ZM13.08,47.14,9.79,42.73l3.29-4.41,3.29,4.41Zm0-15.78L9.79,27l3.29-4.41L16.38,27Z" style="fill:#fcf5eb"/></svg>
