<svg id="Layer_1" data-name="Layer 1" xmlns="http://www.w3.org/2000/svg" viewBox="0 0 70 60"><title>designchallenge_gold</title><path d="M28.51,11.42a2.9,2.9,0,0,1,2.06.85l3.86,3.86a2.92,2.92,0,0,1,0,4.12L32.89,21.8l-8-8,1.55-1.55A2.9,2.9,0,0,1,28.51,11.42ZM49.34,18.9l-3.17-3.17,5.64-2.47ZM31.53,23.15,18.22,36.46l-8-8L23.55,15.17ZM45.7,18,18,45.64l-1.09-1.09L44.61,16.89Zm11.19,1.14A2.83,2.83,0,0,1,59.76,22V57.15A2.85,2.85,0,0,1,56.91,60H21.73a2.85,2.85,0,0,1-2-4.86l2.55-2.55L25,55.27l1.36-1.36-2.69-2.69L27,47.89l2.69,2.69L31,49.22l-2.69-2.69,3.34-3.34,2.69,2.69,1.36-1.36L33,41.84l3.65-3.65,2.69,2.69,1.36-1.36L38,36.84l3.59-3.6,2.69,2.69,1.36-1.36L43,31.88l3.48-3.48,2.69,2.69,1.36-1.36L47.81,27l3.48-3.48L54,26.25l1.36-1.36-2.69-2.69L54.9,20a2.77,2.77,0,0,1,2-.84ZM52.56,32.47,32.23,52.8H52.56Zm-4.38-12L20.52,48.12,19.39,47,47.06,19.33Zm-29,29-2.64,2.64a2.52,2.52,0,0,1-3.57-3.57l2.64-2.64Z" style="fill:#e2af3b"/></svg>