<svg id="Layer_1" data-name="Layer 1" xmlns="http://www.w3.org/2000/svg" viewBox="0 0 70 60"><title>multiplayer_gold</title><path d="M46.36,9.44,37.89,1a4.11,4.11,0,0,0-5.81,0L11.87,21.18,7.95,17.26l-3,3,3.92,3.92L6.07,27a4.11,4.11,0,0,0,0,5.81l8.47,8.47a4.11,4.11,0,0,0,5.81,0l26-26A4.11,4.11,0,0,0,46.36,9.44Zm-21,20.23H22v3.39H17.65V29.67H14.27V25.36h3.39V22H22v3.39h3.39Zm3.86-14.06a2.16,2.16,0,1,1,2.16-2.16A2.16,2.16,0,0,1,29.22,15.61Zm4.65,4.65A2.16,2.16,0,1,1,36,18.11,2.16,2.16,0,0,1,33.87,20.27Z" style="fill:#e2af3b"/><path d="M64.43,38.68l-3.21-3.21,2.68-2.68a4.11,4.11,0,0,0,0-5.81l-8.47-8.47a4.11,4.11,0,0,0-5.81,0l-26,26a4.11,4.11,0,0,0,0,5.81l8.47,8.47a4.11,4.11,0,0,0,5.81,0L58.17,38.52l3.92,3.92,3-3ZM35,49.54a2.16,2.16,0,1,1,2.16-2.16A2.16,2.16,0,0,1,35,49.54Zm4.65-4.65a2.16,2.16,0,1,1,2.16-2.16A2.16,2.16,0,0,1,39.67,44.88ZM55.6,34.64l-3,3-2.4-2.4-2.4,2.4-3-3,2.4-2.4-2.4-2.4,3-3,2.4,2.4,2.4-2.4,3,3-2.4,2.4Z" style="fill:#e2af3b"/></svg>