<svg id="Layer_1" data-name="Layer 1" xmlns="http://www.w3.org/2000/svg" viewBox="0 0 60.27 60.23"><title>multiplayer</title><path d="M41.49,9.67,33,1.2a4.11,4.11,0,0,0-5.81,0L7,21.41,3.08,17.49l-3,3L4,24.46,1.2,27.21A4.11,4.11,0,0,0,1.2,33l8.47,8.47a4.11,4.11,0,0,0,5.81,0l26-26A4.11,4.11,0,0,0,41.49,9.67Zm-21,20.23H17.1V33.3H12.79V29.91H9.4V25.6h3.39V22.21H17.1V25.6h3.39Zm3.86-14.06a2.16,2.16,0,1,1,2.16-2.16A2.16,2.16,0,0,1,24.35,15.85ZM29,20.5a2.16,2.16,0,1,1,2.16-2.16A2.16,2.16,0,0,1,29,20.5Z" style="fill:#fcf5eb"/><path d="M59.56,38.92,56.35,35.7,59,33a4.11,4.11,0,0,0,0-5.81l-8.47-8.47a4.11,4.11,0,0,0-5.81,0l-26,26a4.11,4.11,0,0,0,0,5.81L27.21,59A4.11,4.11,0,0,0,33,59L53.3,38.75l3.92,3.92,3-3ZM30.16,49.77a2.16,2.16,0,1,1,2.16-2.16A2.16,2.16,0,0,1,30.16,49.77Zm4.65-4.65A2.16,2.16,0,1,1,37,43,2.16,2.16,0,0,1,34.81,45.12ZM50.73,34.88l-3,3-2.4-2.4-2.4,2.4-3-3,2.4-2.4-2.4-2.4,3-3,2.4,2.4,2.4-2.4,3,3-2.4,2.4Z" style="fill:#fcf5eb"/></svg>