<svg id="Layer_1" data-name="Layer 1" xmlns="http://www.w3.org/2000/svg" viewBox="0 0 363.35 101.96"><defs><style>.cls-1{fill:#e2af3b;}.cls-2{fill:none;}</style></defs><title>pacman</title><path class="cls-1" d="M554.19,276c-21.89,0-40.42,15.06-46.6,35.8l46.33,14.55.81.58-47.09,15.38C513.87,363,532.35,378,554.19,378c27,0,48.81-22.83,48.81-51S581.15,276,554.19,276Z" transform="translate(-239.65 -276)"/><path class="cls-2" d="M549.27,326.76,507.59,309a87.72,87.72,0,0,0,0,37.25L550,327.47Z" transform="translate(-239.65 -276)"/><ellipse class="cls-1" cx="230.92" cy="50.97" rx="6.92" ry="6.53"/><ellipse class="cls-1" cx="102.92" cy="51.97" rx="6.92" ry="6.53"/><ellipse class="cls-1" cx="134.92" cy="51.97" rx="6.92" ry="6.53"/><ellipse class="cls-1" cx="166.92" cy="51.97" rx="6.92" ry="6.53"/><ellipse class="cls-1" cx="198.92" cy="51.97" rx="6.92" ry="6.53"/><ellipse class="cls-1" cx="6.92" cy="51.97" rx="6.92" ry="6.53"/><ellipse class="cls-1" cx="38.92" cy="51.97" rx="6.92" ry="6.53"/><ellipse class="cls-1" cx="70.92" cy="51.97" rx="6.92" ry="6.53"/></svg>