<svg id="Layer_1" data-name="Layer 1" xmlns="http://www.w3.org/2000/svg" viewBox="0 0 70 60"><title>playtest_gold</title><path d="M17.4,15a5.6,5.6,0,0,0-5.59,5.59V60H54.1a4.09,4.09,0,0,0,4.09-4.09V15H17.4ZM14.81,57V20.59A2.59,2.59,0,0,1,17.4,18H38V57ZM46.33,46.56a2.16,2.16,0,1,1,0-3A2.16,2.16,0,0,1,46.33,46.56Zm6.58,0a2.16,2.16,0,1,1,0-3A2.16,2.16,0,0,1,52.9,46.56ZM50.49,33.89l-2.4-2.4-2.4,2.4-3-3,2.4-2.4L42.65,26l3-3,2.4,2.4,2.4-2.4,3,3-2.4,2.4,2.4,2.4Z" style="fill:#e2af3b"/><polygon points="30.95 45.84 27.9 42.8 25.51 45.19 23.11 42.8 20.06 45.84 22.46 48.24 20.06 50.63 23.11 53.68 25.51 51.29 27.9 53.68 30.95 50.63 28.56 48.24 30.95 45.84" style="fill:#e2af3b"/><polygon points="24.88 35.01 22.65 32.78 20.06 35.37 24.88 40.18 30.95 34.11 28.37 31.52 24.88 35.01" style="fill:#e2af3b"/><polygon points="24.88 24.8 22.65 22.57 20.06 25.16 24.88 29.97 30.95 23.9 28.37 21.32 24.88 24.8" style="fill:#e2af3b"/></svg>