<svg id="Layer_1" data-name="Layer 1" xmlns="http://www.w3.org/2000/svg" viewBox="0 0 45.52 68"><title>strategy</title><path d="M37.76,61.29v4.49A2.15,2.15,0,0,1,35.69,68H2.09A2.15,2.15,0,0,1,0,65.78V61.29Zm-.88-20.6c-1.89-3.22-5.1-7.31-7.71-11.34h-4.7a7.75,7.75,0,0,1-7.75-7.75v-3a4.09,4.09,0,0,1,4.09-4.09h0l0,7.36A3.21,3.21,0,0,0,24.06,25h7.57l6.46,9.49s10.75-1.86,6.37-11.39C39.47,12.28,32.32,5.53,28.84.81a2.08,2.08,0,0,0-3.69,1.48C13.32,2.46,0,1.67,0,16.74c0,8,7.85,15.14,10.19,22.49C12.28,45.75,5.91,49,.56,53.65-.15,54.26,0,57,0,57h37.9c3.1-3.74,3.79-6.79,1.78-11C38.82,44.2,37.89,42.41,36.88,40.69Z" style="fill:#fcf5eb"/></svg>
