<svg id="Layer_1" data-name="Layer 1" xmlns="http://www.w3.org/2000/svg" viewBox="0 0 70 60"><title>strategy_invert</title><path d="M48.23,54.08v4a1.9,1.9,0,0,1-1.82,2H16.76a1.9,1.9,0,0,1-1.82-2v-4ZM47.46,35.9c-1.67-2.84-4.5-6.45-6.8-10H36.51a6.84,6.84,0,0,1-6.84-6.84V16.39a3.61,3.61,0,0,1,3.61-3.61h0l0,6.49a2.83,2.83,0,0,0,2.83,2.81h6.68l5.7,8.37S58,28.81,54.15,20.41C49.75,10.84,43.44,4.88,40.36.71A1.83,1.83,0,0,0,37.11,2c-10.43.16-22.17-.54-22.17,12.76,0,7.05,6.93,13.36,9,19.85,1.83,5.75-3.79,8.6-8.51,12.72-.63.55-.48,2.94-.48,2.94H48.38c2.73-3.3,3.34-6,1.57-9.67C49.17,39,48.35,37.42,47.46,35.9Z" style="fill:#7fc8a0"/></svg>