<svg id="Layer_1" data-name="Layer 1" xmlns="http://www.w3.org/2000/svg" viewBox="0 0 70 60"><title>tetrad_gold</title><path d="M56,21a8.94,8.94,0,0,0-5.2,1.66l-8.32-8.32a9,9,0,1,0-15,0L19.2,22.7a9,9,0,1,0,0,14.63l8.49,8.48a9,9,0,1,0,14.65,0l8.47-8.48A9,9,0,1,0,56,21ZM13.67,34.56A4.35,4.35,0,1,1,18,30.21,4.35,4.35,0,0,1,13.67,34.56ZM42,18.14l4.54,4.54c1.39,1.39,1.65,2.72,1.17,3.88l-.07.16A2.91,2.91,0,0,1,45,28.51H36.51V20.66a3.34,3.34,0,0,1,2.07-3l.09,0A3,3,0,0,1,42,18.14ZM35,5a4.35,4.35,0,1,1-4.35,4.35A4.35,4.35,0,0,1,35,5ZM23,23.11l5-5a3,3,0,0,1,3.34-.56l.3.13a2.94,2.94,0,0,1,1.86,2.71v8.09H25a3,3,0,0,1-2.73-1.9l0,0A3.21,3.21,0,0,1,23,23.11Zm5.22,19-5.39-5.39a3,3,0,0,1-.59-3.29l0,0A3,3,0,0,1,25,31.51h8.47V40a3,3,0,0,1-1.9,2.73l-.06,0A3,3,0,0,1,28.26,42.13ZM35,55.39A4.35,4.35,0,1,1,39.35,51,4.35,4.35,0,0,1,35,55.39ZM47.14,36.76l-5.37,5.37a3,3,0,0,1-3.29.59l-.06,0A3,3,0,0,1,36.51,40V31.51H45a3,3,0,0,1,2.73,1.9l0,.06A3,3,0,0,1,47.14,36.76Zm9.2-2.21a4.35,4.35,0,1,1,4.35-4.35A4.35,4.35,0,0,1,56.33,34.56Z" style="fill:#e2af3b"/></svg>