<svg id="Layer_1" data-name="Layer 1" xmlns="http://www.w3.org/2000/svg" viewBox="0 0 42.91 45"><title>time</title><path d="M30.42,18.56,35,14.86c3.35-2.7,4.29-4.76,4.29-9.06h0A3.61,3.61,0,0,0,42.91,2.2V0H0V2.2A3.61,3.61,0,0,0,3.61,5.8h0c0,4.3.94,6.36,4.29,9.06l4.59,3.7c.49.54,3.73,2.24,3.73,3.94S13,25.9,12.48,26.44L7.9,30.14c-3.34,2.7-4.29,4.76-4.29,9.06h0A3.61,3.61,0,0,0,0,42.8V45H42.91V42.8A3.61,3.61,0,0,0,39.3,39.2h0c0-4.3-.94-6.36-4.29-9.06l-4.59-3.7c-.49-.54-3.73-2.24-3.73-3.94S29.94,19.1,30.42,18.56Zm5,20.74h-28l14-9.24Zm-14-19.07-6.64-6.07H28.09Z" style="fill:#7fc8a0"/></svg>
