<svg id="Layer_1" data-name="Layer 1" xmlns="http://www.w3.org/2000/svg" viewBox="0 0 70 60"><title>time</title><path d="M42.53,33.56l3.85-3.7c2.81-2.7,3.6-4.76,3.6-9.06h0a3.36,3.36,0,0,0,3-3.61V15H17v2.2a3.36,3.36,0,0,0,3,3.61h0c0,4.3.79,6.36,3.6,9.06l3.85,3.7c.41.54,3.13,2.24,3.13,3.94s-2.72,3.4-3.13,3.94l-3.85,3.7C20.82,47.83,20,49.9,20,54.2h0a3.36,3.36,0,0,0-3,3.61V60H53V57.8a3.35,3.35,0,0,0-3-3.61h0c0-4.3-.79-6.36-3.6-9.06l-3.85-3.7c-.41-.54-3.13-2.24-3.13-3.94S42.12,34.1,42.53,33.56Zm4.22,20.74H23.25L35,45.07ZM35,35.24l-5.57-6.07H40.57Z" style="fill:#fcf5eb"/></svg>