<?xml version="1.0" encoding="utf-8"?>
<!-- Generator: Adobe Illustrator 21.0.0, SVG Export Plug-In . SVG Version: 6.00 Build 0)  -->
<svg version="1.1" baseProfile="tiny" xmlns="http://www.w3.org/2000/svg" xmlns:xlink="http://www.w3.org/1999/xlink" x="0px"
	 y="0px" viewBox="0 0 431.5 153.4" xml:space="preserve">
<g id="Layer_1">
	<g>
		<path fill="none" d="M103.6,122.1c-1.9,0-3.4,0.6-4.5,1.8c-1.1,1.2-1.8,2.9-2,5.2h8h4.6c-0.3-4-1.8-6.3-4.6-6.9
			C104.6,122.1,104.1,122.1,103.6,122.1z"/>
		<path fill="none" d="M241.6,132.9c0,6.6,2.5,9.9,7.5,9.9c0,0,0,0,0.1,0c5.1,0,7.6-3.3,7.6-9.9c0-6.6-2.5-9.9-7.6-9.9
			c0,0,0,0-0.1,0C244.1,123,241.6,126.3,241.6,132.9z"/>
		<path fill="none" d="M310.9,45.9c1.2-1.4,1.8-3.1,1.8-5.2v-1h-1.3c-1.4,0-2.7,0.1-3.8,0.2c-1.5,0.2-2.6,0.4-3.5,0.8
			c-1.4,0.6-2.2,1.6-2.2,3.1c0,1.2,0.4,2.2,1.2,3c0.8,0.8,1.8,1.2,3,1.2c0.5,0,1-0.1,1.5-0.2C309,47.5,310,46.9,310.9,45.9z"/>
		<path fill="none" d="M64.4,42.7c1.4-1.5,2.1-3.7,2.1-6.6c0-2.8-0.7-5-2.1-6.6c-1.4-1.6-3.3-2.4-5.8-2.4c-1.2,0-2.2,0.2-3.1,0.5
			c-1,0.4-1.9,1-2.7,1.8c-1.4,1.6-2.1,3.8-2.1,6.7c0,2.8,0.7,4.9,2.1,6.5c0.7,0.8,1.6,1.4,2.6,1.8c0.9,0.4,2,0.5,3.1,0.5
			C61.1,45,63.1,44.3,64.4,42.7z"/>
		<path fill="none" d="M360.8,44.2c1.3-1.7,2-4.2,2-7.5c0-3.1-0.7-5.5-2-7.1c-1.3-1.6-3.1-2.5-5.6-2.5c0,0-0.1,0-0.1,0
			c-2.5,0-4.4,0.8-5.8,2.5c-1.3,1.7-2,4.1-2,7.2c0,3.2,0.7,5.7,2,7.4c1.3,1.7,3.2,2.6,5.7,2.6c0.1,0,0.1,0,0.2,0
			C357.7,46.8,359.5,45.9,360.8,44.2z"/>
		<path fill="none" d="M325.4,140.2c1.3-1.7,2-4.2,2-7.5c0-3.1-0.7-5.5-2-7.1c-1.3-1.7-3.2-2.5-5.6-2.5c-0.4,0-0.8,0-1.2,0.1
			c-1.9,0.2-3.5,1-4.6,2.4c-1.3,1.7-2,4.1-2,7.2c0,3.2,0.7,5.7,2,7.4c1.1,1.4,2.7,2.3,4.6,2.5c0.4,0,0.7,0.1,1.1,0.1
			C322.2,142.8,324,141.9,325.4,140.2z"/>
		<path fill="none" d="M213.7,33.1h5.8h6.8c-0.3-4.7-2.3-7-6.1-7c-0.2,0-0.5,0-0.7,0.1c-1.5,0.1-2.8,0.7-3.8,1.7
			C214.6,29.1,214,30.8,213.7,33.1z"/>
		<path fill="none" d="M99.8,43.7c0,1.2,0.4,2.2,1.2,3c0.8,0.8,1.8,1.2,3,1.2c0.2,0,0.4,0,0.7,0c1.6-0.1,3-0.8,4.1-2
			c1.2-1.4,1.8-3.1,1.8-5.2v-1h-1.3c-1.8,0-3.4,0.1-4.6,0.3c-1.1,0.2-2,0.4-2.7,0.7C100.5,41.2,99.8,42.2,99.8,43.7z"/>
		<path fill="none" d="M194.9,132.9c0,6.6,2.5,9.9,7.6,9.9c0,0,0,0,0,0c5.1,0,7.6-3.3,7.6-9.9c0-6.6-2.5-9.9-7.6-9.9c0,0,0,0,0,0
			C197.4,123,194.9,126.3,194.9,132.9z"/>
		<path fill="none" d="M359.3,132.9c0,6.6,2.5,9.9,7.6,9.9c0.3,0,0.6,0,0.8,0c4.5-0.3,6.8-3.6,6.8-9.9c0-6.2-2.3-9.5-6.8-9.9
			c-0.3,0-0.5,0-0.8,0C361.8,123,359.3,126.3,359.3,132.9z"/>
		<path fill="#E2AF3B" d="M40.7,22.9c-0.7,0.9-1.3,1.8-1.8,2.9c-1.5,3-2.2,6.4-2.2,10.3c0,3.9,0.7,7.3,2.2,10.3
			c0.6,1.3,1.4,2.4,2.3,3.5h14.3v-5.4c-1-0.4-1.9-1-2.6-1.8c-1.4-1.6-2.1-3.7-2.1-6.5c0-2.9,0.7-5.1,2.1-6.7
			c0.7-0.8,1.6-1.4,2.7-1.8V23v0H40.7z"/>
		<path fill="#E2AF3B" d="M106.2,16.5c-0.5,0-1.1,0-1.6,0v6.4h16.7c-0.5-0.8-1-1.5-1.7-2.1C116.7,17.9,112.2,16.5,106.2,16.5z"/>
		<path fill="#E2AF3B" d="M155.9,50.7c0,2.2,0.7,3.8,2,4.9c1.4,1.1,3.1,1.6,5.1,1.6c2.1,0,3.8-0.5,5.1-1.6c1.3-1.1,2-2.7,2-4.9v-0.8
			h-14.2V50.7z"/>
		<path fill="#E2AF3B" d="M104.6,49.9H87.3c0.2,0.5,0.5,0.9,0.7,1.3c1.3,1.9,3,3.5,5.2,4.6c2.2,1.1,4.6,1.6,7.4,1.6
			c1.5,0,2.8-0.2,4-0.6V49.9L104.6,49.9z"/>
		<path fill="#DD3D27" d="M55.5,16.5c-0.4,0-0.8-0.1-1.2-0.1c-3.4,0-6.5,0.8-9.1,2.4c-1.7,1.1-3.2,2.4-4.4,4h14.8V16.5z"/>
		<path fill="#DD3D27" d="M104.6,26.9c0.1,0,0.2,0,0.3,0c2,0,3.5,0.4,4.3,1.2c0.9,0.8,1.3,2.2,1.3,4v1h-2.2c-1.3,0-2.6,0-3.7,0.1
			v6.8c1.3-0.2,2.8-0.3,4.6-0.3h1.3v1c0,2.1-0.6,3.9-1.8,5.2c-1.1,1.2-2.4,1.9-4.1,2v2v0H124V34.1c0-4.6-0.9-8.3-2.7-11.1h-16.7
			V26.9z"/>
		<path fill="#DD3D27" d="M154.7,28.6c0.7,0.9,1.1,2.3,1.1,4.5v16.8h14.2v-15c0-2.3,0.6-4.2,1.7-5.5c1.1-1.3,2.5-1.9,4.3-2V23h-7.3
			c-0.1,0.2-0.2,0.3-0.3,0.5c-0.1-0.2-0.2-0.3-0.2-0.5h-14v5.2C154.4,28.3,154.6,28.5,154.7,28.6z"/>
		<path fill="#A24F9D" d="M104.6,16.5c-2.2,0.1-4.5,0.4-6.7,0.8c-2.8,0.6-5.2,1.4-7,2.3c-1.1,0.6-1.8,1.3-2.3,2
			c-0.2,0.4-0.4,0.8-0.5,1.3h16.6V16.5z"/>
		<path fill="#A24F9D" d="M58.6,27.1c2.5,0,4.5,0.8,5.8,2.4c1.4,1.6,2.1,3.8,2.1,6.6c0,2.8-0.7,5-2.1,6.6c-1.4,1.5-3.3,2.3-5.8,2.3
			c-1.1,0-2.2-0.2-3.1-0.5v5.4h25V23.2c0-0.1,0-0.1,0-0.2h-25v4.7C56.4,27.3,57.4,27.1,58.6,27.1z"/>
		<path fill="#A24F9D" d="M145.4,34.9c0-2.3,0.5-4.2,1.6-5.5c1.1-1.3,2.6-2,4.4-2c1.1,0,2,0.3,2.7,0.8V23v0h-23.1c0,0,0,0.1,0,0.1
			v26.9h14.2V34.9z"/>
		<path fill="#30AEA4" d="M53.1,61c-1.3-0.3-2.7-0.7-4.4-1.2c-2.5-0.8-4.2-1.2-5.2-1.2c-1.2,0-2.2,0.5-3,1.4c-0.8,1-1.2,2.2-1.2,3.8
			c0,1.1,0.3,2,0.8,2.9c0.6,0.9,1.3,1.5,2.3,2.1c1.8,1,4,1.8,6.6,2.3c2,0.4,4.2,0.7,6.4,0.8V61.4C54.7,61.3,53.9,61.2,53.1,61z"/>
		<path fill="#30AEA4" d="M55.5,49.9H41.2c1.1,1.3,2.5,2.5,4,3.4c2.7,1.6,5.7,2.4,9.1,2.4c0.4,0,0.8,0,1.2-0.1V49.9L55.5,49.9z"/>
		<path fill="#30AEA4" d="M154.2,16.7c-4,0.6-7.1,2.5-9.2,5.7c-0.1-1.9-0.7-3.3-2-4.3c-1.3-1-2.8-1.5-4.7-1.5c-2,0-3.7,0.5-5.1,1.6
			c-1.4,1.1-2.1,2.6-2.1,4.7h23.1V16.7z"/>
		<path fill="#30AEA4" d="M104.6,56.8c0.8-0.3,1.6-0.6,2.3-1c1.8-1.1,3-2.6,3.8-4.5c0.1,1.8,0.8,3.3,2,4.3c1.2,1.1,2.7,1.6,4.6,1.6
			c2.1,0,3.8-0.6,5-1.7c1.2-1.1,1.8-2.7,1.8-4.8v-0.9h-19.4V56.8z"/>
		<path fill="#30AEA4" d="M133.2,55.6c1.4,1.1,3.1,1.6,5.1,1.6c2,0,3.7-0.5,5.1-1.6c1.4-1.1,2-2.7,2-4.9v-0.8h-14.2v0.8
			C131.1,52.9,131.8,54.5,133.2,55.6z"/>
		<path fill="#7FC8A0" d="M55.5,49.9v5.7c2.1-0.1,4.1-0.6,5.9-1.5c2.2-1,3.9-2.4,5-4.2v3c0,2.9-0.8,5.1-2.3,6.4
			c-1.5,1.4-3.9,2-7.2,2c-0.5,0-1,0-1.5-0.1v10.4c0.6,0,1.3,0,1.9,0c7.6,0,13.3-1.7,17.2-5c3.9-3.4,5.9-8.3,5.9-14.8v-2.1L55.5,49.9
			L55.5,49.9z"/>
		<path fill="#7FC8A0" d="M104.6,47.9c-0.2,0-0.4,0-0.7,0c-1.2,0-2.2-0.4-3-1.2c-0.8-0.8-1.2-1.8-1.2-3c0-1.4,0.7-2.5,2.2-3.1
			c0.7-0.3,1.6-0.5,2.7-0.7v-6.8c-3.7,0.1-6.8,0.5-9.2,1.1c-3.2,0.7-5.5,2-7,3.6c-1.5,1.7-2.2,3.9-2.2,6.8c0,1.9,0.4,3.7,1.1,5.3
			h17.3V47.9z"/>
		<path fill="#7FC8A0" d="M87.9,22.9c-0.1,0.5-0.2,1-0.2,1.6c0,1.5,0.4,2.8,1.2,3.8c0.8,1,1.9,1.4,3.2,1.4c0.9,0,1.9-0.2,3.1-0.6
			c4-1.4,7.1-2.2,9.3-2.2v-3.9H87.9z"/>
		<path fill="#30AEA4" d="M105.1,112.6v5.2h11.4c-1.1-1.1-2.3-2.1-3.6-2.8C110.6,113.6,108,112.8,105.1,112.6z"/>
		<path fill="#E2AF3B" d="M64,146.7c0,2,0.6,3.6,1.9,4.8c1.3,1.2,3,1.8,5.2,1.8c2.2,0,3.9-0.6,5.2-1.8c1.3-1.2,1.9-2.8,1.9-4.8v-2.2
			H64V146.7z"/>
		<path fill="#DD3D27" d="M105.1,122.2c2.8,0.6,4.3,2.9,4.6,6.9h-4.6v6.7h13.2c1.1,0,1.9-0.3,2.4-1c0.6-0.7,0.8-1.6,0.8-2.8
			c0-3.9-0.8-7.4-2.3-10.3c-0.8-1.5-1.7-2.8-2.8-4h-11.4V122.2z"/>
		<path fill="#DD3D27" d="M121.3,144.5c-0.1-1.1-0.5-2.1-1.1-2.9c-0.8-1-1.8-1.4-3-1.4c-0.6,0-1.3,0.1-2.1,0.4
			c-0.8,0.2-1.6,0.5-2.4,0.8c-1.4,0.5-2.6,0.9-3.8,1.2c-1.1,0.3-2.3,0.4-3.7,0.4c-0.1,0-0.2,0-0.2,0v1.5H121.3z"/>
		<path fill="#A24F9D" d="M64.6,112.5c-2.4,0-4.6,0.4-6.6,1.2v4h17.6c-0.2-0.4-0.5-0.7-0.7-1C72.6,113.9,69.2,112.5,64.6,112.5z"/>
		<path fill="#30AEA4" d="M105.1,153.4c2.1,0,4.3-0.3,6.8-0.9c2.5-0.6,4.6-1.4,6.4-2.3c2.1-1.1,3.1-2.7,3.1-4.9c0-0.3,0-0.6-0.1-0.9
			h-16.3V153.4z"/>
		<path fill="#DD3D27" d="M58,123.4c0.3,0,0.7-0.1,1-0.1c3.3,0,5,1.9,5,5.8v15.4h14.2v-15c0-5-0.9-8.9-2.6-11.7H58V123.4z"/>
		<path fill="#E2AF3B" d="M307.7,23.1h16c-0.5-0.8-1.1-1.6-1.7-2.2c-2.9-2.9-7.4-4.4-13.5-4.4c-0.3,0-0.5,0-0.8,0V23.1L307.7,23.1z"
			/>
		<path fill="#E2AF3B" d="M295.5,55.8c2.2,1.1,4.6,1.6,7.4,1.6c1.8,0,3.4-0.3,4.8-0.9V50l0,0h-18.1c0.2,0.4,0.4,0.9,0.7,1.3
			C291.6,53.2,293.3,54.7,295.5,55.8z"/>
		<path fill="#DD3D27" d="M311.5,39.7h1.3v1c0,2.1-0.6,3.9-1.8,5.2c-0.9,1-2,1.6-3.2,1.9V50l0,0h18.6V34.1c0-4.6-0.9-8.2-2.6-11h-16
			v3.9c1.7,0.1,3,0.5,3.8,1.2c0.9,0.8,1.3,2.2,1.3,4v1h-2.2c-1,0-2,0-2.9,0v6.7C308.8,39.7,310,39.7,311.5,39.7z"/>
		<path fill="#A24F9D" d="M307.7,16.5c-2.5,0-5,0.3-7.6,0.9c-2.8,0.6-5.2,1.4-7,2.3c-1.1,0.6-1.8,1.3-2.3,2
			c-0.3,0.4-0.4,0.9-0.6,1.4h17.5V16.5z"/>
		<path fill="#30AEA4" d="M307.7,56.6c0.5-0.2,1-0.4,1.5-0.7c1.8-1.1,3-2.6,3.8-4.5c0.1,1.8,0.8,3.3,2,4.3c1.2,1.1,2.7,1.6,4.6,1.6
			c2.1,0,3.8-0.6,5-1.7c1.2-1.1,1.8-2.7,1.8-4.8V50h-18.6V56.6z"/>
		<path fill="#7FC8A0" d="M307.7,23.1h-17.5c-0.1,0.5-0.2,1-0.2,1.5c0,1.5,0.4,2.8,1.2,3.8c0.8,1,1.9,1.4,3.2,1.4
			c0.9,0,1.9-0.2,3.1-0.6c4.2-1.5,7.4-2.2,9.6-2.2c0.2,0,0.3,0,0.5,0V23.1L307.7,23.1z"/>
		<path fill="#7FC8A0" d="M307.7,47.8c-0.5,0.1-1,0.2-1.5,0.2c-1.2,0-2.2-0.4-3-1.2c-0.8-0.8-1.2-1.8-1.2-3c0-1.4,0.7-2.5,2.2-3.1
			c0.8-0.4,2-0.6,3.5-0.8v-6.7c-4.1,0.1-7.4,0.5-10,1.1c-3.2,0.7-5.5,2-7,3.6c-1.5,1.7-2.2,3.9-2.2,6.8c0,1.9,0.4,3.7,1.2,5.3h18.1
			V47.8z"/>
		<path fill="#E2AF3B" d="M204.1,49.9c1.6,2.1,3.7,3.8,6.2,5.1c2.7,1.4,5.8,2.2,9.3,2.4v-7.5H204.1z"/>
		<path fill="#E2AF3B" d="M234.2,22.9c-1.3-1.6-2.8-3-4.7-4.1c-2.8-1.6-6-2.4-9.7-2.4c-0.1,0-0.2,0-0.3,0v6.5H234.2z"/>
		<path fill="#DD3D27" d="M213.7,33.1c0.2-2.3,0.9-4,2-5.2c1-1,2.3-1.6,3.8-1.7v-3.2h-14.6c-0.9,1-1.7,2.2-2.3,3.4
			c-1.7,3.1-2.5,6.7-2.5,10.6c0,4.2,0.9,7.8,2.6,10.9c0.4,0.7,0.9,1.4,1.4,2.1h15.5v-3.1c-1.3-0.3-2.4-0.7-3.2-1.5
			c-1.3-1.1-2.1-3-2.5-5.5h5.7v-6.7H213.7z"/>
		<path fill="#A24F9D" d="M219.5,57.4c0.7,0,1.4,0.1,2.1,0.1c2.1,0,4.4-0.3,6.8-0.9c2.5-0.6,4.6-1.4,6.4-2.3c1.9-1,2.9-2.5,3.1-4.3
			h-18.5V57.4z"/>
		<path fill="#30AEA4" d="M219.5,22.9v-6.5c-3.7,0-7,0.9-9.9,2.6c-1.8,1-3.4,2.3-4.7,3.9H219.5z"/>
		<path fill="#7FC8A0" d="M238,49.9c0-0.2,0-0.4,0-0.5c0-1.5-0.4-2.8-1.2-3.8c-0.8-1-1.8-1.4-3-1.4c-0.6,0-1.3,0.1-2.1,0.4
			c-0.8,0.2-1.6,0.5-2.4,0.8c-1.4,0.5-2.6,0.9-3.8,1.2c-1.1,0.3-2.3,0.4-3.7,0.4c-0.9,0-1.7-0.1-2.4-0.2v3.1H238z"/>
		<path fill="#7FC8A0" d="M219.5,26.1c0.2,0,0.4-0.1,0.7-0.1c3.7,0,5.8,2.3,6.1,7h-6.8v6.7h15.4c1.1,0,1.9-0.3,2.4-1
			c0.6-0.7,0.8-1.6,0.8-2.8c0-3.9-0.8-7.4-2.3-10.3c-0.5-1-1.1-1.9-1.8-2.7h-14.6V26.1z"/>
		<path fill="#E2AF3B" d="M193.1,22.9c-0.5-1-1-1.9-1.7-2.6c-2.3-2.6-5.7-3.9-10-3.9c-1.7,0-3.3,0.2-4.8,0.7v5.8H193.1z"/>
		<path fill="#A24F9D" d="M180.7,50.7c0,2.2,0.7,3.8,2,4.9c1.4,1.1,3.1,1.6,5.1,1.6c2,0,3.7-0.5,5.1-1.6c1.4-1.1,2-2.7,2-4.9v-0.8
			h-14.2V50.7z"/>
		<path fill="#7FC8A0" d="M176.3,27.4c1.4,0,2.5,0.4,3.3,1.3c0.7,0.9,1.1,2.3,1.1,4.5v16.8h14.2V33.4c0-4.4-0.6-7.9-1.8-10.5h-16.4
			l0,0h-0.5v0v4.4C176.1,27.4,176.2,27.4,176.3,27.4z"/>
		<path fill="#E2AF3B" d="M230.8,144.7c1.7,2.7,4.1,4.7,7,6.2c3.3,1.7,7,2.5,11.3,2.5v-8.8H230.8z"/>
		<path fill="#E2AF3B" d="M249.2,112.5C249.2,112.5,249.1,112.5,249.2,112.5l-0.1,5.4h15.8c-1.2-1.2-2.7-2.1-4.3-2.9
			C257.4,113.3,253.6,112.5,249.2,112.5z"/>
		<path fill="#DD3D27" d="M249.1,142.8c-5,0-7.5-3.3-7.5-9.9c0-6.6,2.5-9.9,7.5-9.9v-5.1h-15.6c-1.3,1.2-2.4,2.6-3.3,4.1
			c-1.8,3.1-2.7,6.7-2.7,10.8s0.9,7.8,2.7,10.9c0.2,0.3,0.4,0.6,0.6,0.9h18.4V142.8z"/>
		<path fill="#A24F9D" d="M249.1,153.4C249.1,153.4,249.2,153.4,249.1,153.4c4.4,0,8.3-0.8,11.5-2.5c2.9-1.5,5.3-3.6,7-6.2h-18.5
			V153.4z"/>
		<path fill="#30AEA4" d="M249.1,112.5c-4.3,0-8.1,0.8-11.4,2.5c-1.6,0.8-3,1.8-4.3,2.9h15.6V112.5z"/>
		<path fill="#7FC8A0" d="M249.1,123C249.1,123,249.2,123,249.1,123c5.1,0,7.7,3.3,7.7,9.9c0,6.6-2.5,9.9-7.6,9.9c0,0,0,0-0.1,0v1.9
			h18.5c0.2-0.3,0.4-0.6,0.6-0.9c1.8-3.1,2.7-6.7,2.7-10.9s-0.9-7.8-2.7-10.8c-0.9-1.6-2-2.9-3.3-4.1h-15.8V123z"/>
		<path fill="#E2AF3B" d="M202.5,112.5C202.5,112.5,202.5,112.5,202.5,112.5l0,5.4h15.7c-1.2-1.2-2.7-2.1-4.3-2.9
			C210.6,113.3,206.8,112.5,202.5,112.5z"/>
		<path fill="#A24F9D" d="M202.4,144.7v8.8c0,0,0.1,0,0.1,0c4.4,0,8.2-0.8,11.4-2.5c2.9-1.5,5.3-3.6,7-6.2h-18.4H202.4z"/>
		<path fill="#7FC8A0" d="M202.5,123C202.5,123,202.5,123,202.5,123c5.1,0,7.6,3.3,7.6,9.9c0,6.6-2.5,9.9-7.6,9.9c0,0,0,0,0,0v1.9
			h18.4c0.2-0.3,0.4-0.6,0.6-0.9c1.8-3.1,2.7-6.7,2.7-10.9s-0.9-7.8-2.7-10.8c-0.9-1.6-2-2.9-3.3-4.1h-15.7V123z"/>
		<path fill="#E2AF3B" d="M17,151.6c1.8,0.7,4,1.2,6.4,1.4l2.2,0.2c2.7,0.2,4.7-0.2,6.2-1.1c1.4-0.9,2.2-2.3,2.2-4.2
			c0-1.5-0.4-2.6-1.3-3.4H17V151.6z"/>
		<path fill="#E2AF3B" d="M52.1,102.2c0-1.9-0.6-3.4-1.9-4.5s-3-1.7-5-1.7c-2.2,0-3.9,0.6-5.3,1.8c-1.3,1.2-2,2.7-2,4.6v15.3h14.2
			V102.2z"/>
		<path fill="#E2AF3B" d="M58,117.7v-4c-0.2,0.1-0.4,0.1-0.6,0.2c-2,0.9-3.6,2.2-5,3.8h5.3H58z"/>
		<path fill="#DD3D27" d="M17,144.5h15.6c-0.9-0.8-2.2-1.3-4-1.4l-2.3-0.2c-1-0.1-1.7-0.4-2.4-1.1c-0.6-0.7-0.9-1.5-0.9-2.6v-15.4
			h4.4c4.3,0,6.4-1.8,6.4-5.3c0-0.3,0-0.6-0.1-0.9H17V144.5z"/>
		<path fill="#A24F9D" d="M37.8,146.7c0,2,0.6,3.6,1.9,4.8c1.3,1.2,3,1.8,5.2,1.8c2.2,0,3.9-0.6,5.2-1.8c1.3-1.2,1.9-2.8,1.9-4.8
			v-2.2H37.8V146.7z"/>
		<path fill="#30AEA4" d="M27.4,113.4H23v-5.2c0-2-0.6-3.6-1.9-4.8c-1-1-2.4-1.5-4.1-1.7v16h16.7C33.3,114.9,31.2,113.4,27.4,113.4z
			"/>
		<path fill="#7FC8A0" d="M57.7,117.7h-5.3c-0.1,0.1-0.3,0.3-0.4,0.4v-0.4H37.8v26.8h14.2v-13.6c0-2.3,0.6-4.1,1.9-5.5
			c1-1.1,2.4-1.8,4.1-2v-5.7H57.7z"/>
		<path fill="#30AEA4" d="M245.4,49.9L245.4,49.9c0,2.3,0.6,4,1.8,5.1c1.2,1.2,2.9,1.8,5,1.8h13.5v-6.9H245.4z"/>
		<polygon fill="#A24F9D" points="245.4,49.9 265.8,49.9 265.8,44.9 260.2,44.9 260.2,22.9 245.4,22.9 		"/>
		<path fill="#A24F9D" d="M265.8,56.8h12.8c2.3,0,4.1-0.5,5.2-1.4c1.1-1,1.7-2.5,1.7-4.5c0-0.3,0-0.7-0.1-1h-19.7V56.8z"/>
		<path fill="#E2AF3B" d="M260.2,22.9V7.2c0-2.2-0.7-3.9-2-5.2c-1.3-1.3-3.1-2-5.4-2c-2.2,0-4,0.7-5.3,2c-1.3,1.3-2,3.1-2,5.2v15.7
			H260.2z"/>
		<path fill="#DD3D27" d="M285.4,49.9c-0.4-3.3-2.6-5-6.9-5h-12.8v5H285.4z"/>
		<path fill="#30AEA4" d="M155.4,144.5c0.4,1,0.9,2,1.5,2.8v-2.8H155.4z"/>
		<path fill="#7FC8A0" d="M173,113.4h-4.4v-5.2c0-2-0.6-3.6-1.9-4.8c-1.3-1.2-3-1.8-5.2-1.8c-1.8,0-3.3,0.4-4.5,1.3v14.8h22.4
			C179,114.9,176.9,113.4,173,113.4z"/>
		<path fill="#A24F9D" d="M157,117.7h-11.2c0,0.3-0.1,0.6-0.1,0.9c0,3.5,2.1,5.3,6.4,5.3h2.3v14.2c0,2.4,0.4,4.6,1.1,6.4h1.5V117.7z
			"/>
		<path fill="#A24F9D" d="M157,147.3c0.3,0.5,0.7,0.9,1.1,1.4c2.5,2.5,6.1,4,10.9,4.4l2.2,0.2c2.7,0.2,4.7-0.2,6.2-1.1
			s2.2-2.3,2.2-4.2c0-1.5-0.4-2.6-1.3-3.4H157V147.3z"/>
		<path fill="#E2AF3B" d="M157,102.9c-0.2,0.2-0.5,0.3-0.7,0.5c-1.3,1.2-1.9,2.8-1.9,4.8v5.2H152c-3.9,0-6,1.4-6.3,4.3H157V102.9z"
			/>
		<path fill="#7FC8A0" d="M103.8,144.5H86.4c1.7,2.8,4.1,4.9,7.1,6.5c3.3,1.7,7.1,2.5,11.4,2.5c0,0,0.1,0,0.1,0v-8.9H103.8z"/>
		<path fill="#A24F9D" d="M97.1,129.1c0.2-2.3,0.9-4,2-5.2c1.1-1.2,2.6-1.8,4.5-1.8c0.5,0,1,0.1,1.5,0.2v-4.5h-1.3H89.4
			c-1.4,1.3-2.6,2.9-3.5,4.6c-1.7,3.1-2.5,6.7-2.5,10.6c0,4.2,0.9,7.8,2.6,10.9c0.1,0.2,0.3,0.4,0.4,0.6h17.3h1.3V143
			c-2.4,0-4.2-0.6-5.4-1.7c-1.3-1.1-2.1-3-2.5-5.5h7.9v-6.7H97.1z"/>
		<path fill="#E2AF3B" d="M105.1,117.7v-5.2c-0.6-0.1-1.3-0.1-1.9-0.1c-3.8,0-7.2,0.9-10.2,2.6c-1.3,0.7-2.5,1.6-3.5,2.6h14.3H105.1
			z"/>
		<path fill="#7FC8A0" d="M9.8,144.5c0.6,1.6,1.5,3,2.6,4.2c1.2,1.2,2.7,2.2,4.5,3v-7.1H9.8z"/>
		<path fill="#A24F9D" d="M17,117.7H2.4H0.1c0,0.3-0.1,0.6-0.1,0.9c0,3.5,2.1,5.3,6.4,5.3h2.3v14.2c0,2.4,0.4,4.6,1.1,6.4H17V117.7z
			"/>
		<path fill="#E2AF3B" d="M17,117.7v-16c-0.4,0-0.7-0.1-1.1-0.1c-2.2,0-3.9,0.6-5.2,1.8c-1.3,1.2-1.9,2.8-1.9,4.8v5.2H6.4
			c-3.9,0-6,1.4-6.3,4.3h2.3H17z"/>
		<path fill="#DD3D27" d="M157,144.5h21.3c-0.9-0.8-2.2-1.3-4-1.4l-2.3-0.2c-1-0.1-1.7-0.4-2.4-1.1c-0.6-0.7-0.9-1.5-0.9-2.6v-15.4
			h4.4c4.3,0,6.4-1.8,6.4-5.3c0-0.3,0-0.6-0.1-0.9H157V144.5z"/>
		<path fill="#30AEA4" d="M390.7,147c0,1.7,0.6,3.1,1.9,4.4c1.3,1.3,2.8,1.9,4.5,1.9c1.8,0,3.3-0.7,4.7-2.2l6.2-6.5h-16.8
			C390.8,145.4,390.7,146.2,390.7,147z"/>
		<path fill="#7FC8A0" d="M424.4,112.7c-1.8,0-3.3,0.7-4.7,2.2l-3,3h13.9c-0.2-1.2-0.8-2.3-1.8-3.3
			C427.6,113.3,426.1,112.7,424.4,112.7z"/>
		<path fill="#A24F9D" d="M411.1,123.6l-5.6-5.7h-13.9c-0.1,0.4-0.1,0.7-0.1,1.1c0,1.7,0.7,3.2,2,4.6l9.1,9l-9.9,9.9
			c-0.7,0.7-1.2,1.4-1.5,2.2H408l3.1-3.2l0,0L411.1,123.6L411.1,123.6z"/>
		<path fill="#A24F9D" d="M420.4,151.2c1.4,1.4,3,2.2,4.7,2.2c1.7,0,3.2-0.6,4.5-1.9c1.3-1.3,1.9-2.7,1.9-4.4c0-0.8-0.2-1.6-0.5-2.4
			h-16.9L420.4,151.2z"/>
		<path fill="#E2AF3B" d="M402.5,114.9c-1.3-1.5-2.9-2.2-4.7-2.2c-1.7,0-3.2,0.6-4.4,1.9c-1,1-1.6,2.1-1.8,3.3h13.9L402.5,114.9z"/>
		<path fill="#DD3D27" d="M411.1,123.6v17.9l3.1,3.2h16.9c-0.3-0.8-0.8-1.5-1.5-2.2l-9.9-9.9l9.1-9c1.3-1.4,2-2.9,2-4.6
			c0-0.4,0-0.7-0.1-1.1h-13.9L411.1,123.6z"/>
		<path fill="#7FC8A0" d="M154.2,22.9h14c-2-4.3-5.7-6.5-11.2-6.5c-1,0-1.9,0.1-2.8,0.2V22.9z"/>
		<path fill="#7FC8A0" d="M176.6,22.9v-5.8c-1,0.3-1.9,0.7-2.8,1.2c-2.1,1.2-3.7,2.7-5,4.6h7.3H176.6L176.6,22.9z"/>
		<path fill="#A24F9D" d="M202.5,142.8c-5.1,0-7.6-3.3-7.6-9.9c0-6.6,2.5-9.9,7.6-9.9v-5.1h-0.1h-15.6c-1.3,1.2-2.4,2.6-3.3,4.1
			c-1.4,2.5-2.3,5.3-2.6,8.4v4.9c0.3,3.2,1.1,6,2.6,8.4c0.2,0.3,0.4,0.6,0.6,0.9h18.3h0h0.1V142.8z"/>
		<path fill="#30AEA4" d="M202.5,117.9v-5.4c-4.4,0-8.2,0.8-11.4,2.5c-1.6,0.8-3,1.8-4.3,2.9h15.6H202.5z"/>
		<path fill="#30AEA4" d="M191.1,150.9c3.3,1.7,7,2.5,11.3,2.5v-8.8H184C185.8,147.3,188.1,149.4,191.1,150.9z"/>
		<path fill="#7FC8A0" d="M80.5,22.9c-0.1-1.9-0.7-3.4-1.9-4.5c-1.3-1.2-3-1.8-5.1-1.8c-2,0-3.7,0.5-4.9,1.6c-1.3,1-1.9,2.5-2,4.3
			c-1.2-1.9-2.9-3.3-5-4.4c-1.8-0.9-3.8-1.4-6-1.5v6.4H80.5z"/>
		<path fill="#E2AF3B" d="M355.3,56.9c1.3,0.3,2.8,0.5,4.2,0.5c3.4,0,6.4-0.9,9-2.6c1.9-1.3,3.5-2.9,4.8-4.9h-18.1V56.9z"/>
		<path fill="#E2AF3B" d="M355.3,17c-0.9,0.2-1.8,0.6-2.7,1c-2.1,1-3.7,2.4-4.9,4.1V6.2c0-1.9-0.6-3.4-1.9-4.5s-3-1.7-5-1.7
			c-2.2,0-3.9,0.6-5.3,1.8c-1.3,1.2-2,2.7-2,4.6v16.7h21.8V17z"/>
		<path fill="#DD3D27" d="M355.3,27.1c2.4,0,4.3,0.8,5.6,2.5c1.3,1.7,2,4,2,7.1c0,3.3-0.7,5.7-2,7.5c-1.3,1.7-3.1,2.6-5.5,2.6V50
			h18.1c0.5-0.8,0.9-1.6,1.3-2.4c1.5-3.1,2.2-6.7,2.2-10.8c0-4.1-0.7-7.6-2.2-10.7c-0.5-1.1-1.1-2.1-1.8-3h-17.6V27.1z"/>
		<path fill="#A24F9D" d="M340.4,57.3c2,0,3.7-0.5,4.9-1.6c1.3-1,2-2.5,2.1-4.3c1.1,1.9,2.8,3.3,4.9,4.4c0.9,0.5,1.9,0.8,2.9,1.1V50
			h-21.8v0.8c0,2,0.6,3.6,1.9,4.8C336.6,56.7,338.3,57.3,340.4,57.3z"/>
		<path fill="#30AEA4" d="M372.9,23.1c-1.2-1.7-2.7-3-4.3-4.1c-2.6-1.7-5.6-2.5-9-2.5c-1.5,0-2.9,0.2-4.2,0.6v6H372.9z"/>
		<path fill="#7FC8A0" d="M355.3,46.8c-0.1,0-0.1,0-0.2,0c-2.5,0-4.3-0.9-5.7-2.6c-1.3-1.7-2-4.2-2-7.4c0-3.1,0.7-5.6,2-7.2
			c1.3-1.7,3.3-2.5,5.8-2.5c0,0,0.1,0,0.1,0v-4.1h-21.8V50h21.8V46.8z"/>
		<path fill="#E2AF3B" d="M388.9,57.3c2.2,0,4-0.7,5.5-2.2c1.4-1.4,2.1-3.1,2.2-5.1h-15.4c0.1,2,0.8,3.7,2.2,5.1
			C384.9,56.5,386.7,57.3,388.9,57.3z"/>
		<path fill="#A24F9D" d="M388.9,16.6c-2.2,0-4.1,0.7-5.6,2.2c-1.2,1.2-1.8,2.6-2.1,4.2h15.2c-0.2-1.6-0.9-3-2.1-4.2
			C393,17.4,391.1,16.6,388.9,16.6z"/>
		<path fill="#7FC8A0" d="M381.2,24.4c0,2.2,0.7,4,2.2,5.5c1.5,1.5,3.3,2.2,5.6,2.2c2.2,0,4-0.7,5.5-2.2c1.5-1.5,2.2-3.3,2.2-5.5
			c0-0.5,0-0.9-0.1-1.3h-15.2C381.2,23.5,381.2,23.9,381.2,24.4z"/>
		<path fill="#7FC8A0" d="M396.6,49.5c0-2.2-0.7-4-2.2-5.5c-1.5-1.5-3.3-2.2-5.5-2.2c-2.2,0-4.1,0.7-5.6,2.2
			c-1.5,1.5-2.2,3.3-2.2,5.5c0,0.1,0,0.3,0,0.4h15.4C396.6,49.8,396.6,49.7,396.6,49.5z"/>
		<path fill="#7FC8A0" d="M276.3,146.7c0,2.2,0.7,3.8,2,4.9c1.4,1.1,3.1,1.6,5.1,1.6c2,0,3.7-0.5,5.1-1.6c1.4-1.1,2-2.7,2-4.9v-2
			h-14.2V146.7z"/>
		<path fill="#A24F9D" d="M312.3,102.2c0-1.9-0.6-3.4-1.9-4.5s-3-1.7-5-1.7c-2.2,0-3.9,0.6-5.3,1.8c-1.3,1.2-2,2.7-2,4.6v15.5h14.2
			V102.2z"/>
		<path fill="#A24F9D" d="M318.6,113.4c-0.5,0.2-0.9,0.4-1.4,0.6c-2,1-3.6,2.3-4.8,3.9h6.2V113.4z"/>
		<rect x="276.3" y="117.9" fill="#E2AF3B" width="14.2" height="26.8"/>
		<path fill="#E2AF3B" d="M318.6,144.7H298v2c0,2,0.6,3.6,1.9,4.8c1.3,1.2,2.9,1.8,5.1,1.8c2,0,3.7-0.5,4.9-1.6c1.3-1,2-2.5,2.1-4.3
			c1.1,1.9,2.8,3.3,4.9,4.4c0.5,0.3,1.1,0.5,1.6,0.7V144.7z"/>
		<path fill="#DD3D27" d="M288.5,97.7c-1.4-1.1-3.1-1.7-5.1-1.7c-2,0-3.7,0.6-5.1,1.7c-1.4,1.1-2,2.8-2,5v15.3h14.2v-15.3
			C290.6,100.5,289.9,98.8,288.5,97.7z"/>
		<path fill="#7FC8A0" d="M318.6,144.7v7.9c1.7,0.6,3.6,0.9,5.5,0.9c3.4,0,6.4-0.9,9-2.6c2.3-1.5,4.2-3.6,5.6-6.2H318.6L318.6,144.7
			z"/>
		<path fill="#E2AF3B" d="M318.6,123.2c0.4,0,0.8-0.1,1.2-0.1c2.5,0,4.3,0.8,5.6,2.5c1.3,1.7,2,4,2,7.1c0,3.3-0.7,5.7-2,7.5
			c-1.3,1.7-3.2,2.6-5.7,2.6c-0.4,0-0.7,0-1.1-0.1v1.9h20.1c0.2-0.4,0.4-0.8,0.6-1.1c1.5-3.1,2.2-6.7,2.2-10.8
			c0-4.1-0.7-7.6-2.2-10.7c-0.7-1.6-1.6-2.9-2.7-4.1h-18V123.2z"/>
		<path fill="#DD3D27" d="M318.6,117.9h18c-1-1.2-2.1-2.1-3.4-2.9c-2.6-1.7-5.6-2.5-9-2.5c-2,0-3.8,0.3-5.5,0.9L318.6,117.9
			L318.6,117.9z"/>
		<path fill="#30AEA4" d="M318.6,144.7v-1.9c-1.9-0.2-3.5-1-4.6-2.5c-1.3-1.7-2-4.2-2-7.4c0-3.1,0.7-5.6,2-7.2
			c1.1-1.4,2.6-2.2,4.6-2.4v-5.3h0h-6.2c0,0.1-0.1,0.1-0.1,0.2v-0.2H298v26.8H318.6L318.6,144.7z"/>
		<path fill="#E2AF3B" d="M348.6,144.9c1.7,2.6,4,4.6,6.9,6c3.3,1.7,7.1,2.5,11.4,2.5c0.3,0,0.5,0,0.8,0v-8.5H348.6z"/>
		<path fill="#DD3D27" d="M367.7,142.8c-0.3,0-0.5,0-0.8,0c-5.1,0-7.6-3.3-7.6-9.9c0-6.6,2.5-9.9,7.6-9.9c0.3,0,0.6,0,0.8,0v-4.9
			H351c-1.2,1.1-2.2,2.5-3.1,3.9c-1.8,3.1-2.7,6.7-2.7,10.8s0.9,7.8,2.7,10.9c0.2,0.4,0.5,0.8,0.7,1.1h19.1V142.8z"/>
		<path fill="#30AEA4" d="M367.7,112.5c-0.3,0-0.5,0-0.8,0c-4.4,0-8.2,0.8-11.4,2.5c-1.7,0.9-3.2,1.9-4.5,3.2h16.7V112.5z"/>
		<path fill="#30AEA4" d="M367.7,153.4c4-0.1,7.6-0.9,10.6-2.5c2.8-1.5,5.1-3.5,6.9-6h-17.5V153.4z"/>
		<path fill="#A24F9D" d="M367.7,123c4.5,0.3,6.8,3.6,6.8,9.9c0,6.2-2.3,9.5-6.8,9.9v2.1h17.5c0.2-0.4,0.5-0.7,0.7-1.1
			c1.8-3.1,2.7-6.7,2.7-10.9s-0.9-7.8-2.7-10.8c-0.9-1.5-1.9-2.8-3.1-3.9h-15.1V123z"/>
		<path fill="#7FC8A0" d="M378.3,115c-3-1.5-6.6-2.4-10.6-2.5v5.6h15.1C381.5,116.9,380,115.8,378.3,115z"/>
	</g>
</g>
<g id="Layer_2">
</g>
</svg>
