<svg id="Layer_1" data-name="Layer 1" xmlns="http://www.w3.org/2000/svg" viewBox="0 0 70 60"><title>training</title><path d="M8.66,27.36V52.64a2.15,2.15,0,0,0,2.18,2.12h3V25.24h-3A2.15,2.15,0,0,0,8.66,27.36Z" style="fill:#fcf5eb"/><path d="M1.5,34.82V45.18A2.15,2.15,0,0,0,3.68,47.3H4.76V32.7H3.68A2.15,2.15,0,0,0,1.5,34.82Z" style="fill:#fcf5eb"/><path d="M49.39,20H44.64a2.16,2.16,0,0,0-2.18,2.13v15H27.55v-15A2.15,2.15,0,0,0,25.37,20H20.61a2.15,2.15,0,0,0-2.18,2.12V57.88A2.15,2.15,0,0,0,20.61,60h4.76a2.15,2.15,0,0,0,2.18-2.12v-15H42.45v15A2.16,2.16,0,0,0,44.64,60h4.75a2.16,2.16,0,0,0,2.18-2.13V22.13A2.16,2.16,0,0,0,49.39,20Z" style="fill:#fcf5eb"/><path d="M59.15,25.24h-3V54.76h3a2.16,2.16,0,0,0,2.18-2.13V27.37A2.16,2.16,0,0,0,59.15,25.24Z" style="fill:#fcf5eb"/><path d="M66.32,32.7H65.24V47.3h1.07a2.16,2.16,0,0,0,2.18-2.13V34.83A2.16,2.16,0,0,0,66.32,32.7Z" style="fill:#fcf5eb"/></svg>