<svg id="Layer_1" data-name="Layer 1" xmlns="http://www.w3.org/2000/svg" viewBox="0 0 67 40"><title>training</title><path d="M7.16,7.36V32.64a2.15,2.15,0,0,0,2.18,2.12h3V5.24h-3A2.15,2.15,0,0,0,7.16,7.36Z" style="fill:#fcf5eb"/><path d="M0,14.82V25.18A2.15,2.15,0,0,0,2.18,27.3H3.26V12.7H2.18A2.15,2.15,0,0,0,0,14.82Z" style="fill:#fcf5eb"/><path d="M47.89,0H43.14A2.16,2.16,0,0,0,41,2.13v15H26v-15A2.15,2.15,0,0,0,23.87,0H19.11a2.15,2.15,0,0,0-2.18,2.12V37.88A2.15,2.15,0,0,0,19.11,40h4.76A2.15,2.15,0,0,0,26,37.88v-15H41v15A2.16,2.16,0,0,0,43.14,40h4.75a2.16,2.16,0,0,0,2.18-2.13V2.13A2.16,2.16,0,0,0,47.89,0Z" style="fill:#fcf5eb"/><path d="M57.65,5.24h-3V34.76h3a2.16,2.16,0,0,0,2.18-2.13V7.37A2.16,2.16,0,0,0,57.65,5.24Z" style="fill:#fcf5eb"/><path d="M64.82,12.7H63.74V27.3h1.07A2.16,2.16,0,0,0,67,25.17V14.83A2.16,2.16,0,0,0,64.82,12.7Z" style="fill:#fcf5eb"/></svg>