<svg id="Layer_1" data-name="Layer 1" xmlns="http://www.w3.org/2000/svg" viewBox="0 0 70 60"><title>wip_gold</title><path d="M61.47,53.89,38.53,14.14a4.07,4.07,0,0,0-7.05,0L8.53,53.89A4.07,4.07,0,0,0,12.05,60h45.9A4.07,4.07,0,0,0,61.47,53.89Zm-10,.13L50,55.57a.59.59,0,0,1-.84,0L35,41.42l-7.43,7.43a5,5,0,0,1-5.72,7,.6.6,0,0,1-.27-1l2.24-2.24a.59.59,0,0,0,0-.84l-1.54-1.54a.59.59,0,0,0-.84,0L19.2,52.45a.6.6,0,0,1-1-.27,5,5,0,0,1,7-5.72L32.62,39l-3.36-3.36L26,38.9a.59.59,0,0,1-.84,0l-3.45-3.45a.59.59,0,0,1,0-.84l8.68-8.68a.59.59,0,0,1,.84,0l3.45,3.45a.59.59,0,0,1,0,.84l-3.08,3.08L35,36.65l2.34-2.34a5,5,0,0,1,5.72-7,.6.6,0,0,1,.27,1L41.1,30.56a.59.59,0,0,0,0,.84l1.54,1.54a.59.59,0,0,0,.84,0l2.24-2.24a.6.6,0,0,1,1,.27,5,5,0,0,1-7,5.72L37.39,39,51.52,53.18A.59.59,0,0,1,51.52,54Z" style="fill:#e2af3b"/></svg>